<svg width="137" height="232" viewBox="0 0 137 232" fill="none" xmlns="http://www.w3.org/2000/svg">
<g filter="url(#filter0_f_1_1456)">
<rect x="14" y="14" width="108.187" height="203.653" rx="8" fill="#F20000"/>
</g>
<rect x="14" y="14" width="108.187" height="203.653" rx="8" fill="#F3F3F3"/>
<path fill-rule="evenodd" clip-rule="evenodd" d="M65.0544 27.9406H29.3712C28.2667 27.9406 27.3712 28.836 27.3712 29.9406L27.3712 84.9149H65.0544V27.9406ZM71.1324 84.9149H108.816V29.9406C108.816 28.836 107.92 27.9406 106.816 27.9406H71.1324V84.9149ZM108.816 90.976H27.3712L27.3712 114.008H108.816V90.976ZM108.816 120.069H27.3712L27.3712 145.526H108.816V120.069ZM108.816 151.587H71.1324V206.137H106.816C107.92 206.137 108.816 205.241 108.816 204.137V151.587ZM110.893 212.198C113.103 212.198 114.893 210.407 114.893 208.198V25.8795C114.893 23.6703 113.103 21.8795 110.893 21.8795H25.2933C23.0842 21.8795 21.2933 23.6703 21.2933 25.8795V208.198C21.2933 210.407 23.0842 212.198 25.2933 212.198H110.893ZM27.3712 204.137C27.3712 205.241 28.2667 206.137 29.3712 206.137H65.0544V151.587H27.3712L27.3712 204.137Z" fill="#414141"/>
<rect x="28.5875" y="29.759" width="79.0132" height="174.56" rx="4" fill="white" fill-opacity="0.95"/>
<path d="M35.6896 45.182C35.6896 46.148 35.1296 46.834 33.8836 46.834H32.1196V43.572H33.8836C35.1296 43.572 35.6896 44.202 35.6896 45.182ZM30.5236 42.27V52H32.1196V48.108H33.3376L35.5776 52H37.4816L35.0736 47.968C36.7116 47.562 37.3276 46.33 37.3276 45.182C37.3276 43.6 36.1936 42.27 33.8836 42.27H30.5236ZM46.7193 48.136C46.7193 45.714 44.9833 44.16 42.7853 44.16C40.5873 44.16 38.8513 45.714 38.8513 48.136C38.8513 50.558 40.5173 52.126 42.7153 52.126C44.9273 52.126 46.7193 50.558 46.7193 48.136ZM40.4753 48.136C40.4753 46.386 41.5533 45.546 42.7573 45.546C43.9473 45.546 45.0813 46.386 45.0813 48.136C45.0813 49.886 43.9053 50.74 42.7153 50.74C41.5113 50.74 40.4753 49.886 40.4753 48.136ZM47.7651 48.108C47.7651 50.488 49.3751 52.126 51.4051 52.126C52.6651 52.126 53.5891 51.538 54.0791 50.838V52H55.6891V41.64H54.0791V45.364C53.4911 44.636 52.4271 44.16 51.4191 44.16C49.3751 44.16 47.7651 45.728 47.7651 48.108ZM54.0791 48.136C54.0791 49.802 52.9451 50.74 51.7411 50.74C50.5511 50.74 49.4031 49.774 49.4031 48.108C49.4031 46.442 50.5511 45.546 51.7411 45.546C52.9451 45.546 54.0791 46.484 54.0791 48.136ZM61.0334 45.504C62.2234 45.504 63.1614 46.26 63.1894 47.45H58.9194C59.0874 46.232 59.9554 45.504 61.0334 45.504ZM64.6454 49.704H62.9234C62.6294 50.306 62.0834 50.782 61.1034 50.782C59.9274 50.782 59.0174 50.012 58.9054 48.738H64.7994C64.8414 48.472 64.8554 48.22 64.8554 47.954C64.8554 45.686 63.3014 44.16 61.1034 44.16C58.8214 44.16 57.2534 45.714 57.2534 48.136C57.2534 50.558 58.8914 52.126 61.1034 52.126C62.9934 52.126 64.2114 51.048 64.6454 49.704ZM68.022 47.94C68.022 46.302 68.75 45.812 69.926 45.812H70.332V44.16C69.24 44.16 68.47 44.636 68.022 45.406V44.286H66.426V52H68.022V47.94ZM71.799 52H73.395V44.286H71.799V52ZM72.611 43.264C73.171 43.264 73.619 42.816 73.619 42.242C73.619 41.668 73.171 41.22 72.611 41.22C72.037 41.22 71.589 41.668 71.589 42.242C71.589 42.816 72.037 43.264 72.611 43.264ZM74.9584 48.136C74.9584 50.558 76.5264 52.126 78.7384 52.126C80.6284 52.126 81.8604 51.076 82.2944 49.564H80.5724C80.2784 50.362 79.6904 50.782 78.7384 50.782C77.4504 50.782 76.5964 49.83 76.5964 48.136C76.5964 46.456 77.4504 45.504 78.7384 45.504C79.6904 45.504 80.3064 45.98 80.5724 46.722H82.2944C81.8604 45.098 80.6284 44.16 78.7384 44.16C76.5264 44.16 74.9584 45.728 74.9584 48.136ZM83.885 52H85.481V48.682L88.337 52H90.493L86.937 48.15L90.493 44.286H88.281L85.481 47.66V41.64H83.885V52ZM98.4516 42.27H95.2736V52H98.4516C101.574 52 103.618 50.166 103.618 47.17C103.618 44.16 101.574 42.27 98.4516 42.27ZM96.8696 50.698V43.572H98.4516C100.748 43.572 101.98 44.944 101.98 47.17C101.98 49.382 100.748 50.698 98.4516 50.698H96.8696ZM106.851 51.076C106.851 50.502 106.403 50.054 105.843 50.054C105.269 50.054 104.821 50.502 104.821 51.076C104.821 51.65 105.269 52.098 105.843 52.098C106.403 52.098 106.851 51.65 106.851 51.076Z" fill="#414141"/>
<path d="M48.8742 154.182C48.8742 155.148 48.3142 155.834 47.0682 155.834H45.3042V152.572H47.0682C48.3142 152.572 48.8742 153.202 48.8742 154.182ZM43.7082 151.27V161H45.3042V157.108H46.5222L48.7622 161H50.6662L48.2582 156.968C49.8962 156.562 50.5122 155.33 50.5122 154.182C50.5122 152.6 49.3782 151.27 47.0682 151.27H43.7082ZM52.5539 161H54.1499V153.286H52.5539V161ZM53.3659 152.264C53.9259 152.264 54.3739 151.816 54.3739 151.242C54.3739 150.668 53.9259 150.22 53.3659 150.22C52.7919 150.22 52.3439 150.668 52.3439 151.242C52.3439 151.816 52.7919 152.264 53.3659 152.264ZM55.7133 157.136C55.7133 159.558 57.2813 161.126 59.4933 161.126C61.3833 161.126 62.6153 160.076 63.0493 158.564H61.3273C61.0333 159.362 60.4453 159.782 59.4933 159.782C58.2053 159.782 57.3513 158.83 57.3513 157.136C57.3513 155.456 58.2053 154.504 59.4933 154.504C60.4453 154.504 61.0613 154.98 61.3273 155.722H63.0493C62.6153 154.098 61.3833 153.16 59.4933 153.16C57.2813 153.16 55.7133 154.728 55.7133 157.136ZM64.6398 161H66.2358V157.682L69.0918 161H71.2478L67.6918 157.15L71.2478 153.286H69.0358L66.2358 156.66V150.64H64.6398V161ZM78.0025 161.014L79.7945 161L81.9645 153.636L84.0085 161H85.8145L88.6985 151.27H86.9905L84.9605 159.152L82.9305 151.27H81.1385L78.9545 159.194L76.9385 151.27H75.2445L78.0025 161.014ZM91.6668 160.076C91.6668 159.502 91.2188 159.054 90.6588 159.054C90.0848 159.054 89.6368 159.502 89.6368 160.076C89.6368 160.65 90.0848 161.098 90.6588 161.098C91.2188 161.098 91.6668 160.65 91.6668 160.076Z" fill="#414141"/>
<path d="M40.7221 70.27H37.5441V80H40.7221C43.8441 80 45.8881 78.166 45.8881 75.17C45.8881 72.16 43.8441 70.27 40.7221 70.27ZM39.1401 78.698V71.572H40.7221C43.0181 71.572 44.2501 72.944 44.2501 75.17C44.2501 77.382 43.0181 78.698 40.7221 78.698H39.1401ZM50.7179 73.504C51.9079 73.504 52.8459 74.26 52.8739 75.45H48.6039C48.7719 74.232 49.6399 73.504 50.7179 73.504ZM54.3299 77.704H52.6079C52.3139 78.306 51.7679 78.782 50.7879 78.782C49.6119 78.782 48.7019 78.012 48.5899 76.738H54.4839C54.5259 76.472 54.5399 76.22 54.5399 75.954C54.5399 73.686 52.9859 72.16 50.7879 72.16C48.5059 72.16 46.9379 73.714 46.9379 76.136C46.9379 78.558 48.5759 80.126 50.7879 80.126C52.6779 80.126 53.8959 79.048 54.3299 77.704ZM55.2005 72.286L58.1265 80H60.0305L62.9705 72.286H61.2765L59.0925 78.572L56.9085 72.286H55.2005ZM71.527 76.136C71.527 73.714 69.791 72.16 67.593 72.16C65.395 72.16 63.659 73.714 63.659 76.136C63.659 78.558 65.325 80.126 67.523 80.126C69.735 80.126 71.527 78.558 71.527 76.136ZM65.283 76.136C65.283 74.386 66.361 73.546 67.565 73.546C68.755 73.546 69.889 74.386 69.889 76.136C69.889 77.886 68.713 78.74 67.523 78.74C66.319 78.74 65.283 77.886 65.283 76.136ZM78.5787 80H80.1607V75.45C80.1607 73.294 78.8027 72.16 76.9967 72.16C76.0727 72.16 75.2187 72.538 74.7007 73.168V72.286H73.1047V80H74.7007V75.688C74.7007 74.274 75.4707 73.546 76.6467 73.546C77.8087 73.546 78.5787 74.274 78.5787 75.688V80ZM85.8332 80H87.4292V73.336L90.4112 80H91.5172L94.4852 73.336V80H96.0812V70.27H94.3732L90.9712 77.9L87.5552 70.27H85.8332V80ZM99.8309 79.076C99.8309 78.502 99.3829 78.054 98.8229 78.054C98.2489 78.054 97.8009 78.502 97.8009 79.076C97.8009 79.65 98.2489 80.098 98.8229 80.098C99.3829 80.098 99.8309 79.65 99.8309 79.076Z" fill="#414141"/>
<path d="M49.2993 180.27H46.1213V190H49.2993C52.4213 190 54.4653 188.166 54.4653 185.17C54.4653 182.16 52.4213 180.27 49.2993 180.27ZM47.7173 188.698V181.572H49.2993C51.5953 181.572 52.8273 182.944 52.8273 185.17C52.8273 187.382 51.5953 188.698 49.2993 188.698H47.7173ZM63.3971 186.136C63.3971 183.714 61.6611 182.16 59.4631 182.16C57.2651 182.16 55.5291 183.714 55.5291 186.136C55.5291 188.558 57.1951 190.126 59.3931 190.126C61.6051 190.126 63.3971 188.558 63.3971 186.136ZM57.1531 186.136C57.1531 184.386 58.2311 183.546 59.4351 183.546C60.6251 183.546 61.7591 184.386 61.7591 186.136C61.7591 187.886 60.5831 188.74 59.3931 188.74C58.1891 188.74 57.1531 187.886 57.1531 186.136ZM66.5708 185.94C66.5708 184.302 67.2988 183.812 68.4748 183.812H68.8808V182.16C67.7888 182.16 67.0188 182.636 66.5708 183.406V182.286H64.9748V190H66.5708V185.94ZM70.3479 190H71.9439V182.286H70.3479V190ZM71.1599 181.264C71.7199 181.264 72.1679 180.816 72.1679 180.242C72.1679 179.668 71.7199 179.22 71.1599 179.22C70.5859 179.22 70.1379 179.668 70.1379 180.242C70.1379 180.816 70.5859 181.264 71.1599 181.264ZM80.854 180.27H77.676V190H80.854C83.976 190 86.02 188.166 86.02 185.17C86.02 182.16 83.976 180.27 80.854 180.27ZM79.272 188.698V181.572H80.854C83.15 181.572 84.382 182.944 84.382 185.17C84.382 187.382 83.15 188.698 80.854 188.698H79.272ZM89.2538 189.076C89.2538 188.502 88.8058 188.054 88.2458 188.054C87.6718 188.054 87.2238 188.502 87.2238 189.076C87.2238 189.65 87.6718 190.098 88.2458 190.098C88.8058 190.098 89.2538 189.65 89.2538 189.076Z" fill="#414141"/>
<rect x="17.6465" y="101.28" width="100.894" height="27.8811" rx="4" fill="url(#paint0_linear_1_1456)"/>
<path d="M43.753 122H46.057V110.336H42.201V112.4H43.753V122ZM48.1419 121.84H56.0459V119.984H51.3259C53.1819 118.416 55.7899 116.304 55.7899 113.6C55.7899 111.568 54.5259 110.08 52.0139 110.08C49.9179 110.08 48.2059 111.312 48.1259 113.984H50.3019C50.3179 112.752 50.9099 111.984 51.9819 111.984C53.0859 111.984 53.5499 112.688 53.5499 113.728C53.5499 115.872 50.7819 117.936 48.1419 120.176V121.84ZM73.9259 122H76.1659V116.8C76.1659 114.352 74.6619 113.008 72.5339 113.008C71.2379 113.008 70.0699 113.696 69.4939 114.704C68.8859 113.6 67.7499 113.008 66.3739 113.008C65.2699 113.008 64.3259 113.472 63.7659 114.208V113.136H61.5259V122H63.7659V117.104C63.7659 115.696 64.5499 114.96 65.7659 114.96C66.9499 114.96 67.7339 115.696 67.7339 117.104V122H69.9739V117.104C69.9739 115.696 70.7579 114.96 71.9579 114.96C73.1419 114.96 73.9259 115.696 73.9259 117.104V122ZM78.2915 122H80.5315V113.136H78.2915V122ZM79.4275 112.08C80.2115 112.08 80.8035 111.504 80.8035 110.768C80.8035 110.032 80.2115 109.456 79.4275 109.456C78.6275 109.456 78.0515 110.032 78.0515 110.768C78.0515 111.504 78.6275 112.08 79.4275 112.08ZM88.9526 122H91.1926V116.8C91.1926 114.352 89.7206 113.008 87.6566 113.008C86.5206 113.008 85.5606 113.488 84.9846 114.24V113.136H82.7446V122H84.9846V117.104C84.9846 115.68 85.7686 114.912 86.9846 114.912C88.1686 114.912 88.9526 115.68 88.9526 117.104V122ZM95.6748 120.8C95.6748 120.064 95.0988 119.488 94.3148 119.488C93.4988 119.488 92.9228 120.064 92.9228 120.8C92.9228 121.536 93.4988 122.112 94.3148 122.112C95.0988 122.112 95.6748 121.536 95.6748 120.8Z" fill="white"/>
<defs>
<filter id="filter0_f_1_1456" x="0" y="0" width="136.187" height="231.653" filterUnits="userSpaceOnUse" color-interpolation-filters="sRGB">
<feFlood flood-opacity="0" result="BackgroundImageFix"/>
<feBlend mode="normal" in="SourceGraphic" in2="BackgroundImageFix" result="shape"/>
<feGaussianBlur stdDeviation="7" result="effect1_foregroundBlur_1_1456"/>
</filter>
<linearGradient id="paint0_linear_1_1456" x1="68.0933" y1="101.28" x2="68.0933" y2="129.161" gradientUnits="userSpaceOnUse">
<stop stop-color="#B74534"/>
<stop offset="1" stop-color="#C95D4D"/>
</linearGradient>
</defs>
</svg>
