<svg width="41" height="41"  viewBox="0 0 41 41" fill="none" xmlns="http://www.w3.org/2000/svg">
<path fill-rule="evenodd" clip-rule="evenodd" d="M7.5371 4.3698C10.2517 2.19402 13.5317 0.694569 17.1217 0.126959C17.5962 1.15838 18.6387 1.87445 19.8485 1.87445C21.1073 1.87445 22.185 1.09914 22.6302 0C26.2522 0.401093 29.5896 1.7458 32.3912 3.78282C31.8002 4.91393 31.9798 6.34284 32.93 7.29298C33.9048 8.26785 35.3837 8.43153 36.5278 7.78403C38.6707 10.5338 40.1279 13.844 40.6426 17.458C39.3264 17.7754 38.3485 18.9607 38.3485 20.3744C38.3485 21.7882 39.3264 22.9735 40.6426 23.2909C40.1279 26.9049 38.6707 30.2151 36.5278 32.9649C35.3837 32.3174 33.9048 32.4811 32.93 33.4559C31.9798 34.4061 31.8002 35.835 32.3912 36.9661C29.5896 39.0031 26.2522 40.3478 22.6302 40.7489C22.185 39.6498 21.1073 38.8744 19.8485 38.8744C18.6387 38.8744 17.5962 39.5905 17.1217 40.6219C13.5317 40.0543 10.2517 38.5549 7.53711 36.3791C7.81545 35.3718 7.55876 34.2477 6.76703 33.4559C5.99972 32.6886 4.92017 32.4239 3.93737 32.6616C1.84206 29.8675 0.44363 26.5208 5.22086e-08 22.8793C0.812491 22.3426 1.3485 21.4211 1.3485 20.3744C1.3485 19.3278 0.812491 18.4063 0 17.8696C0.44363 14.2281 1.84206 10.8814 3.93737 8.08727C4.92016 8.32505 5.99971 8.06028 6.76702 7.29297C7.55875 6.50124 7.81544 5.37709 7.5371 4.3698ZM11.3272 30.4767C12.3547 30.9275 13.5246 31.1529 14.8371 31.1529C16.1563 31.1529 17.3329 30.901 18.367 30.3972C19.4011 29.8934 20.2164 29.204 20.813 28.329C21.4162 27.4474 21.7178 26.453 21.7178 25.346C21.7178 24.0534 21.3565 22.9696 20.634 22.0946C19.9115 21.213 18.9072 20.6661 17.6212 20.454V20.2949C18.6487 19.9834 19.4607 19.4232 20.0573 18.6145C20.6605 17.8058 20.9621 16.828 20.9621 15.6813C20.9621 14.7201 20.7202 13.8252 20.2363 12.9966C19.7524 12.168 19.0597 11.5018 18.1582 10.998C17.2566 10.4876 16.1761 10.2324 14.9167 10.2324C13.7434 10.2324 12.6662 10.4578 11.6851 10.9085C10.7107 11.3593 9.92189 11.989 9.31867 12.7977C8.71545 13.5998 8.39395 14.5345 8.35418 15.6017H10.7405C10.7737 14.9256 10.9858 14.3489 11.3769 13.8716C11.768 13.3877 12.2718 13.0198 12.8883 12.7679C13.5114 12.5094 14.1743 12.3801 14.8769 12.3801C15.626 12.3801 16.2756 12.5226 16.8258 12.8077C17.3826 13.0927 17.8135 13.4905 18.1184 14.0009C18.4233 14.5113 18.5758 15.1112 18.5758 15.8006C18.5758 16.5165 18.4001 17.1396 18.0488 17.6699C17.7041 18.2002 17.2235 18.6112 16.607 18.9029C15.9972 19.1945 15.2879 19.3404 14.4792 19.3404H12.8485V21.5279H14.4792C15.5133 21.5279 16.3883 21.6903 17.1042 22.0151C17.8201 22.3399 18.3636 22.7906 18.7349 23.3673C19.1061 23.9374 19.2917 24.597 19.2917 25.346C19.2917 26.0619 19.0994 26.6917 18.715 27.2352C18.3305 27.7788 17.8002 28.203 17.1241 28.508C16.4479 28.8129 15.6724 28.9654 14.7974 28.9654C14.0152 28.9654 13.3026 28.8361 12.6596 28.5776C12.0166 28.3191 11.4962 27.9545 11.0985 27.4838C10.7008 27.0066 10.4754 26.4398 10.4224 25.7835H7.91668C7.96971 26.8508 8.29452 27.7887 8.89111 28.5975C9.49433 29.3995 10.3064 30.026 11.3272 30.4767Z" fill="#C9FF57" />
</svg>
