<svg width="242" height="40" viewBox="0 0 242 40" fill="none" xmlns="http://www.w3.org/2000/svg">
<g filter="url(#filter0_d_1672_235)">
<rect x="4" y="2" width="234" height="32" rx="4" fill="white" shape-rendering="crispEdges"/>
<path d="M17.42 20.34C17.42 16.728 12.156 18.296 12.156 15.776C12.156 14.726 12.982 14.18 14.032 14.208C15.222 14.222 15.838 14.964 15.922 15.622H17.322C17.168 14.138 15.95 13.116 14.088 13.116C12.156 13.116 10.854 14.208 10.854 15.818C10.854 19.444 16.132 17.764 16.132 20.396C16.132 21.32 15.404 22.02 14.172 22.02C12.814 22.02 12.24 21.208 12.156 20.396H10.798C10.826 22.006 12.212 23.098 14.172 23.098C16.286 23.098 17.42 21.726 17.42 20.34ZM22.5568 16.28C23.8728 16.28 24.9928 17.106 24.9788 18.604H20.1348C20.2748 17.106 21.3108 16.28 22.5568 16.28ZM26.1408 20.634H24.7688C24.4888 21.46 23.7608 22.048 22.6128 22.048C21.3108 22.048 20.2188 21.194 20.1208 19.64H26.2528C26.2808 19.374 26.2948 19.15 26.2948 18.87C26.2948 16.77 24.8388 15.202 22.6128 15.202C20.3728 15.202 18.8188 16.728 18.8188 19.15C18.8188 21.586 20.4288 23.126 22.6128 23.126C24.5168 23.126 25.7488 22.034 26.1408 20.634ZM27.9764 23H29.2504V12.64H27.9764V23ZM34.6838 16.28C35.9998 16.28 37.1198 17.106 37.1058 18.604H32.2618C32.4017 17.106 33.4378 16.28 34.6838 16.28ZM38.2678 20.634H36.8958C36.6158 21.46 35.8878 22.048 34.7398 22.048C33.4378 22.048 32.3458 21.194 32.2478 19.64H38.3798C38.4078 19.374 38.4218 19.15 38.4218 18.87C38.4218 16.77 36.9658 15.202 34.7398 15.202C32.4998 15.202 30.9458 16.728 30.9458 19.15C30.9458 21.586 32.5558 23.126 34.7398 23.126C36.6438 23.126 37.8758 22.034 38.2678 20.634ZM39.6274 19.15C39.6274 21.586 41.1814 23.126 43.3654 23.126C45.2694 23.126 46.5154 22.062 46.9074 20.536H45.5354C45.2554 21.502 44.4994 22.048 43.3654 22.048C41.9654 22.048 40.9294 21.054 40.9294 19.15C40.9294 17.274 41.9654 16.28 43.3654 16.28C44.4994 16.28 45.2694 16.868 45.5354 17.792H46.9074C46.5154 16.182 45.2694 15.202 43.3654 15.202C41.1814 15.202 39.6274 16.742 39.6274 19.15ZM48.8873 20.9C48.8873 22.44 49.6573 23 51.0153 23H52.1633V21.922H51.2253C50.4413 21.922 50.1613 21.656 50.1613 20.9V16.378H52.1633V15.328H50.1613V13.396H48.8873V15.328H47.8933V16.378H48.8873V20.9ZM56.9633 19.15C56.9633 21.586 58.5173 23.126 60.7013 23.126C62.6053 23.126 63.8513 22.062 64.2433 20.536H62.8713C62.5913 21.502 61.8353 22.048 60.7013 22.048C59.3013 22.048 58.2653 21.054 58.2653 19.15C58.2653 17.274 59.3013 16.28 60.7013 16.28C61.8353 16.28 62.6053 16.868 62.8713 17.792H64.2433C63.8513 16.182 62.6053 15.202 60.7013 15.202C58.5173 15.202 56.9633 16.742 56.9633 19.15ZM73.2232 19.15C73.2232 16.728 71.5292 15.202 69.3452 15.202C67.1752 15.202 65.4672 16.728 65.4672 19.15C65.4672 21.586 67.1192 23.126 69.2892 23.126C71.4732 23.126 73.2232 21.586 73.2232 19.15ZM66.7692 19.15C66.7692 17.218 67.9872 16.308 69.3312 16.308C70.6472 16.308 71.9212 17.218 71.9212 19.15C71.9212 21.096 70.6192 22.006 69.2892 22.006C67.9592 22.006 66.7692 21.096 66.7692 19.15ZM81.7023 15.328H80.4283V19.542C80.4283 21.194 79.5463 22.006 78.2303 22.006C76.9423 22.006 76.0883 21.208 76.0883 19.654V15.328H74.8283V19.822C74.8283 22.02 76.2143 23.112 77.9783 23.112C79.0003 23.112 79.9383 22.664 80.4283 21.866V23H81.7023V15.328ZM85.1274 18.828C85.1274 17.05 86.0514 16.504 87.2694 16.504H87.6054V15.188C86.3874 15.188 85.5614 15.72 85.1274 16.574V15.328H83.8534V23H85.1274V18.828ZM89.356 20.9C89.356 22.44 90.126 23 91.484 23H92.632V21.922H91.694C90.91 21.922 90.63 21.656 90.63 20.9V16.378H92.632V15.328H90.63V13.396H89.356V15.328H88.362V16.378H89.356V20.9Z" fill="#3F3F3F"/>
<path fill-rule="evenodd" clip-rule="evenodd" d="M220.146 15.6464C220.342 15.4512 220.658 15.4512 220.854 15.6464L225.5 20.2929L230.146 15.6464C230.342 15.4512 230.658 15.4512 230.854 15.6464C231.049 15.8417 231.049 16.1583 230.854 16.3536L225.854 21.3536C225.658 21.5488 225.342 21.5488 225.146 21.3536L220.146 16.3536C219.951 16.1583 219.951 15.8417 220.146 15.6464Z" fill="url(#paint0_linear_1672_235)"/>
</g>
<defs>
<filter id="filter0_d_1672_235" x="0" y="0" width="242" height="40" filterUnits="userSpaceOnUse" color-interpolation-filters="sRGB">
<feFlood flood-opacity="0" result="BackgroundImageFix"/>
<feColorMatrix in="SourceAlpha" type="matrix" values="0 0 0 0 0 0 0 0 0 0 0 0 0 0 0 0 0 0 127 0" result="hardAlpha"/>
<feOffset dy="2"/>
<feGaussianBlur stdDeviation="2"/>
<feComposite in2="hardAlpha" operator="out"/>
<feColorMatrix type="matrix" values="0 0 0 0 0 0 0 0 0 0 0 0 0 0 0 0 0 0 0.12 0"/>
<feBlend mode="normal" in2="BackgroundImageFix" result="effect1_dropShadow_1672_235"/>
<feBlend mode="normal" in="SourceGraphic" in2="effect1_dropShadow_1672_235" result="shape"/>
</filter>
<linearGradient id="paint0_linear_1672_235" x1="225.5" y1="15.5" x2="225.5" y2="21.5" gradientUnits="userSpaceOnUse">
<stop stop-color="#B74534"/>
<stop offset="1" stop-color="#C95D4D"/>
</linearGradient>
</defs>
</svg>
