<svg width="15" height="17" viewBox="0 0 15 17" fill="none" xmlns="http://www.w3.org/2000/svg">
<path d="M14.0535 2.7859L10.1318 2.80028L10.1257 1.11279C10.1251 0.96361 10.0653 0.820754 9.95945 0.715652C9.85357 0.610551 9.71028 0.551812 9.5611 0.552359L5.06113 0.568859C4.91194 0.569406 4.76909 0.629193 4.66399 0.735068C4.55888 0.840943 4.50015 0.984234 4.50069 1.13342L4.50688 2.82091L0.585227 2.83528L0.574563 4.24158L1.73471 4.23733L2.48147 15.2737C2.50039 15.5591 2.62732 15.8266 2.83643 16.0218C3.04554 16.2169 3.32114 16.3251 3.60717 16.3243L11.1306 16.2967C11.4164 16.2956 11.6911 16.1858 11.8989 15.9894C12.1067 15.7931 12.232 15.525 12.2492 15.2397L12.9143 4.19634L14.0745 4.19209L14.0535 2.7859ZM4.54813 14.0708L4.19873 5.07205L5.35887 5.0678L5.70828 14.0666L4.54813 14.0708ZM7.92311 14.0585L6.79811 14.0626L6.76511 5.06264L7.89011 5.05852L7.92311 14.0585ZM8.7256 2.80544L5.91312 2.81575L5.90951 1.83138C5.90937 1.79409 5.92406 1.75826 5.95033 1.73179C5.97661 1.70533 6.01232 1.69038 6.04962 1.69024L8.58085 1.68096C8.61815 1.68082 8.65397 1.69551 8.68044 1.72178C8.70691 1.74806 8.72186 1.78377 8.72199 1.82107L8.7256 2.80544ZM10.1731 14.0502L9.01294 14.0545L9.29635 5.05336L10.4565 5.04911L10.1731 14.0502Z" fill="url(#paint0_linear_1672_330)"/>
<defs>
<linearGradient id="paint0_linear_1672_330" x1="7.31111" y1="0.560609" x2="7.36886" y2="16.3105" gradientUnits="userSpaceOnUse">
<stop stop-color="#B74534"/>
<stop offset="1" stop-color="#C95D4D"/>
</linearGradient>
</defs>
</svg>
